<?xml version="1.0" encoding="UTF-8"?>
<svg version="1.1" xmlns="http://www.w3.org/2000/svg" width="477" height="330">
<path d="M0 0 C157.41 0 314.82 0 477 0 C477 87.12 477 174.24 477 264 C319.59 264 162.18 264 0 264 C0 176.88 0 89.76 0 0 Z " fill="#F9FAFA" transform="translate(0,66)"/>
<path d="M0 0 C9.64066452 8.00482183 16.78634028 17.171593 23 28 C23.3403125 28.57097412 23.680625 29.14194824 24.03125 29.73022461 C26.31389572 33.60096102 28.13658136 37.47966434 29.75 41.6875 C30.39195312 43.33298828 30.39195312 43.33298828 31.046875 45.01171875 C32 48 32 48 32 52 C32.56807373 51.97905273 33.13614746 51.95810547 33.72143555 51.93652344 C45.11186825 51.57269278 55.34303851 51.41019155 66 56 C66.98871094 56.4125 67.97742188 56.825 68.99609375 57.25 C87.23577414 65.59898244 100.58147151 79.84080579 107.9375 98.5 C113.56738837 117.04551462 110.90195888 138.32419559 102.18774414 155.32202148 C99.31245834 160.67994442 96.08152676 165.47544378 92 170 C91.24009766 170.8971875 91.24009766 170.8971875 90.46484375 171.8125 C80.83043008 182.41745657 65.12570961 189.95074806 50.80843186 191.18963897 C48.40945434 191.26451069 46.01735983 191.28105628 43.61721802 191.27415466 C42.70428352 191.27939134 41.79134903 191.28462802 40.85074985 191.29002339 C37.80816972 191.30495977 34.76575872 191.30572715 31.72314453 191.30639648 C29.5344464 191.31402254 27.34575093 191.3224508 25.15705872 191.33161926 C19.22055757 191.35353419 13.28410793 191.3623598 7.3475709 191.36744571 C3.63201574 191.37109453 -0.08352604 191.37733751 -3.79907608 191.3844471 C-16.11157729 191.40767359 -28.42404379 191.42165309 -40.73656641 191.42498314 C-41.39938817 191.42516595 -42.06220992 191.42534876 -42.74511719 191.42553711 C-43.40875991 191.42571766 -44.07240263 191.42589821 -44.75615574 191.42608423 C-54.8212415 191.42939949 -64.88614939 191.45197392 -74.95117188 191.48706055 C-86.66725366 191.52776429 -98.38319918 191.55099804 -110.09935486 191.55178314 C-116.2904429 191.55257297 -122.48127106 191.56117505 -128.67229843 191.58978081 C-134.50504008 191.61612802 -140.33730955 191.61807417 -146.170084 191.60212517 C-148.29756648 191.60032354 -150.42507715 191.60688339 -152.55249977 191.62294388 C-174.4090677 191.7777335 -194.42201869 187.99852165 -210.7265625 172.30078125 C-211.47679687 171.54152344 -212.22703125 170.78226563 -213 170 C-213.70898438 169.31292969 -214.41796875 168.62585938 -215.1484375 167.91796875 C-227.91289345 154.73781213 -232.66401635 136.7627152 -232.47070312 118.84741211 C-231.8034206 99.31342608 -224.1921843 83.36861625 -210 70 C-195.84455995 58.11495828 -179.5824951 51.75681669 -161.125 51.9375 C-160.24585938 51.94201172 -159.36671875 51.94652344 -158.4609375 51.95117188 C-156.30726197 51.96287663 -154.15362183 51.98080931 -152 52 C-151.87955322 51.41629639 -151.75910645 50.83259277 -151.63500977 50.23120117 C-148.00335548 33.1836238 -139.02310202 19.3806664 -127 7 C-126.45085937 6.38898438 -125.90171875 5.77796875 -125.3359375 5.1484375 C-112.65358573 -8.5335085 -95.96951318 -15.65732989 -78 -19 C-77.10539063 -19.18691406 -76.21078125 -19.37382813 -75.2890625 -19.56640625 C-47.87485122 -23.18039372 -21.99144293 -16.70018529 0 0 Z " fill="#2A95E7" transform="translate(300,113)"/>
<path d="M0 0 C8.13475474 6.24999652 15.32034159 13.94132996 20.95361328 22.50097656 C20.95361328 23.16097656 20.95361328 23.82097656 20.95361328 24.50097656 C19.30361328 25.16097656 17.65361328 25.82097656 15.95361328 26.50097656 C16.22173828 25.79972656 16.48986328 25.09847656 16.76611328 24.37597656 C17.27526683 21.22884358 17.27526683 21.22884358 14.64111328 18.25097656 C12.26633704 15.52104237 12.26633704 15.52104237 9.95361328 14.50097656 C9.62361328 13.51097656 9.29361328 12.52097656 8.95361328 11.50097656 C6.70488492 9.54054671 4.62552362 7.83693173 1.95361328 6.50097656 C2.28361328 5.84097656 2.61361328 5.18097656 2.95361328 4.50097656 C2.02548828 4.31535156 2.02548828 4.31535156 1.07861328 4.12597656 C-1.04638672 3.50097656 -1.04638672 3.50097656 -3.04638672 1.50097656 C-3.70638672 1.50097656 -4.36638672 1.50097656 -5.04638672 1.50097656 C-5.04638672 0.51097656 -5.04638672 -0.47902344 -5.04638672 -1.49902344 C-5.95388672 -1.78777344 -6.86138672 -2.07652344 -7.79638672 -2.37402344 C-10.3684158 -3.26434119 -12.65985438 -4.21396756 -15.04638672 -5.49902344 C-14.71638672 -4.83902344 -14.38638672 -4.17902344 -14.04638672 -3.49902344 C-15.92138672 -3.74902344 -15.92138672 -3.74902344 -18.04638672 -4.49902344 C-18.29388672 -5.11777344 -18.54138672 -5.73652344 -18.79638672 -6.37402344 C-20.61819299 -9.4710941 -22.86688975 -9.98347141 -26.17138672 -11.24902344 C-27.26708984 -11.67699219 -28.36279297 -12.10496094 -29.49169922 -12.54589844 C-30.75626953 -13.01769531 -30.75626953 -13.01769531 -32.04638672 -13.49902344 C-32.37638672 -12.50902344 -32.70638672 -11.51902344 -33.04638672 -10.49902344 C-33.37638672 -11.48902344 -33.70638672 -12.47902344 -34.04638672 -13.49902344 C-49.29481919 -16.86530025 -64.67125195 -18.07063859 -80.04638672 -14.49902344 C-80.70251953 -14.00015625 -81.35865234 -13.50128906 -82.03466797 -12.98730469 C-84.86770288 -10.89140896 -87.58246846 -10.96432589 -91.04638672 -10.49902344 C-94.42137559 -9.23409338 -94.42137559 -9.23409338 -97.67138672 -7.62402344 C-99.29947266 -6.85445312 -99.29947266 -6.85445312 -100.96044922 -6.06933594 C-106.98113231 -3.00564657 -112.08752638 0.43644264 -116.79638672 5.31347656 C-118.04638672 6.50097656 -118.04638672 6.50097656 -120.04638672 6.50097656 C-120.04638672 7.16097656 -120.04638672 7.82097656 -120.04638672 8.50097656 C-121.69091797 10.05175781 -121.69091797 10.05175781 -123.85888672 11.81347656 C-126.98575375 14.46523659 -129.23096241 16.76333828 -131.04638672 20.50097656 C-132.04638672 22.50097656 -132.04638672 22.50097656 -134.04638672 24.81347656 C-136.14980583 27.63994599 -136.4676701 29.11135065 -137.04638672 32.50097656 C-139.38906602 38.07878441 -139.38906602 38.07878441 -142.02294922 39.77050781 C-144.84587842 42.18471175 -145.19024405 44.50423331 -146.10888672 48.06347656 C-147.72548784 54.28704398 -147.72548784 54.28704398 -151.04638672 56.50097656 C-153.67138672 56.68847656 -153.67138672 56.68847656 -156.04638672 56.50097656 C-156.54138672 56.00597656 -156.54138672 56.00597656 -157.04638672 55.50097656 C-158.66891164 55.40211304 -160.29585945 55.37126489 -161.92138672 55.37597656 C-162.80568359 55.37339844 -163.68998047 55.37082031 -164.60107422 55.36816406 C-167.18544963 55.40049071 -167.18544963 55.40049071 -170.04638672 56.50097656 C-172.73388672 56.06347656 -172.73388672 56.06347656 -175.04638672 55.50097656 C-175.04638672 55.17097656 -175.04638672 54.84097656 -175.04638672 54.50097656 C-169.71770689 53.39156289 -164.58356817 53.38549587 -159.17138672 53.43847656 C-158.29224609 53.44298828 -157.41310547 53.4475 -156.50732422 53.45214844 C-154.35364869 53.4638532 -152.20000855 53.48178587 -150.04638672 53.50097656 C-149.92593994 52.91727295 -149.80549316 52.33356934 -149.68139648 51.73217773 C-146.0497422 34.68460036 -137.06948874 20.88164296 -125.04638672 8.50097656 C-124.49724609 7.88996094 -123.94810547 7.27894531 -123.38232422 6.64941406 C-110.69997245 -7.03253194 -94.0158999 -14.15635333 -76.04638672 -17.49902344 C-75.15177734 -17.6859375 -74.25716797 -17.87285156 -73.33544922 -18.06542969 C-46.59148753 -21.59105884 -21.91914594 -15.48070452 0 0 Z M-133.04638672 22.50097656 C-131.56138672 23.49097656 -131.56138672 23.49097656 -130.04638672 24.50097656 C-130.37638672 25.16097656 -130.70638672 25.82097656 -131.04638672 26.50097656 C-131.70638672 25.18097656 -132.36638672 23.86097656 -133.04638672 22.50097656 Z " fill="#5FB3EB" transform="translate(298.04638671875,111.4990234375)"/>
<path d="M0 0 C0.33 0 0.66 0 1 0 C0.47365454 5.49817625 -0.89856498 9.76480094 -3.375 14.6875 C-3.72369141 15.38085449 -4.07238281 16.07420898 -4.43164062 16.78857422 C-12.98000644 32.93755224 -27.82314171 43.55324266 -45.00820923 49.15130615 C-54.9762933 51.89881151 -64.97566759 51.52780437 -75.24365234 51.45410156 C-77.46243774 51.45297137 -79.68122463 51.45361029 -81.90000916 51.45587158 C-87.88465968 51.45701295 -93.86898545 51.43359738 -99.85356092 51.40557575 C-106.12221573 51.38046545 -112.39087908 51.37821253 -118.65957642 51.37347412 C-129.16861162 51.36247904 -139.67754718 51.33754331 -150.18652344 51.30175781 C-161.0039003 51.26496078 -171.82124494 51.23668685 -182.63867188 51.21972656 C-183.64126569 51.21815022 -183.64126569 51.21815022 -184.66411392 51.21654204 C-188.01774087 51.21132134 -191.37136805 51.20626664 -194.72499537 51.20129442 C-222.48341247 51.15955403 -250.24169788 51.089257 -278 51 C-278 50.34 -278 49.68 -278 49 C-276.91939206 49.00092179 -275.83878412 49.00184359 -274.72543049 49.00279331 C-248.40010754 49.02501867 -222.07478581 49.04143801 -195.74945545 49.05181217 C-183.01859516 49.05696271 -170.28774107 49.06398173 -157.55688477 49.07543945 C-146.45730211 49.08542426 -135.35772395 49.09186246 -124.25813693 49.09408849 C-118.38409441 49.09538915 -112.51006476 49.09843413 -106.63602638 49.10573006 C-101.09984812 49.1125502 -95.56368794 49.11460482 -90.02750587 49.11310768 C-88.00275575 49.11338132 -85.97800499 49.11535071 -83.95325851 49.11920547 C-68.4097659 49.49893381 -68.4097659 49.49893381 -53 48 C-52.67 47.34 -52.34 46.68 -52 46 C-49.4375 45.375 -49.4375 45.375 -47 45 C-47 45.66 -47 46.32 -47 47 C-44.53199953 45.84826645 -42.95216435 44.95216435 -41 43 C-40.01 43 -39.02 43 -38 43 C-37.01 42.34 -36.02 41.68 -35 41 C-32.3125 40.875 -32.3125 40.875 -30 41 C-29.34 39.68 -28.68 38.36 -28 37 C-27.34 37.33 -26.68 37.66 -26 38 C-25.67 37.34 -25.34 36.68 -25 36 C-24.34 35.525625 -23.68 35.05125 -23 34.5625 C-20.71843864 33.07681896 -20.71843864 33.07681896 -20 30 C-19.34 30 -18.68 30 -18 30 C-18 29.34 -18 28.68 -18 28 C-17.34 27.67 -16.68 27.34 -16 27 C-16 26.01 -16 25.02 -16 24 C-13.69 22.68 -11.38 21.36 -9 20 C-9.66 19.67 -10.32 19.34 -11 19 C-11 18.34 -11 17.68 -11 17 C-10.01 16.67 -9.02 16.34 -8 16 C-7.67 15.34 -7.34 14.68 -7 14 C-6.34 14 -5.68 14 -5 14 C-4.70996094 13.11248047 -4.70996094 13.11248047 -4.4140625 12.20703125 C-3.05585281 8.0853355 -1.67949415 4.0049476 0 0 Z " fill="#1877CD" transform="translate(406,253)"/>
<path d="M0 0 C2.475 0.495 2.475 0.495 5 1 C5.144375 2.134375 5.28875 3.26875 5.4375 4.4375 C5.61171478 7.80777201 5.61171478 7.80777201 7 9 C7.66 8.34 8.32 7.68 9 7 C9 7.99 9 8.98 9 10 C9.66 10.33 10.32 10.66 11 11 C10.938125 11.78375 10.87625 12.5675 10.8125 13.375 C10.874375 14.24125 10.93625 15.1075 11 16 C11.99 16.66 12.98 17.32 14 18 C14 17.34 14 16.68 14 16 C15.875 16.25 15.875 16.25 18 17 C18.69937532 18.31647119 19.36729133 19.65022151 20 21 C20.99 21.33 21.98 21.66 23 22 C23.66 22.66 24.32 23.32 25 24 C24.34 24 23.68 24 23 24 C23.33 24.66 23.66 25.32 24 26 C24.66 25.67 25.32 25.34 26 25 C26 25.99 26 26.98 26 28 C27.98 28.66 29.96 29.32 32 30 C31.67 30.99 31.34 31.98 31 33 C23.03949581 32.50246849 16.51165625 25.01189909 11.25 19.640625 C6.58181068 14.16198614 1.25193018 7.18121063 0 0 Z " fill="#2186D9" transform="translate(73,261)"/>
<path d="M0 0 C1.1875 1.625 1.1875 1.625 2 4 C0.81687342 7.22073345 -0.04950653 9.39123601 -2.98828125 11.2734375 C-5.79958221 13.68624337 -6.14626764 16.0125954 -7.0625 19.5625 C-8.67910112 25.78606742 -8.67910112 25.78606742 -12 28 C-14.625 28.1875 -14.625 28.1875 -17 28 C-17.33 27.67 -17.66 27.34 -18 27 C-19.62252492 26.90113647 -21.24947273 26.87028833 -22.875 26.875 C-23.75929687 26.87242187 -24.64359375 26.86984375 -25.5546875 26.8671875 C-28.13906291 26.89951415 -28.13906291 26.89951415 -31 28 C-33.6875 27.5625 -33.6875 27.5625 -36 27 C-36 26.67 -36 26.34 -36 26 C-30.67132017 24.89058633 -25.53718145 24.88451931 -20.125 24.9375 C-19.24585938 24.94201172 -18.36671875 24.94652344 -17.4609375 24.95117188 C-15.30726197 24.96287663 -13.15362183 24.98080931 -11 25 C-10.87447754 24.39164307 -10.74895508 23.78328613 -10.61962891 23.15649414 C-10.44866699 22.35332764 -10.27770508 21.55016113 -10.1015625 20.72265625 C-9.93479004 19.92867432 -9.76801758 19.13469238 -9.59619141 18.31665039 C-8.81946329 15.2984796 -7.52653892 12.70613718 -6 10 C-5.34 10 -4.68 10 -4 10 C-3.67 8.35 -3.34 6.7 -3 5 C-2.34 5 -1.68 5 -1 5 C-0.67 3.35 -0.34 1.7 0 0 Z " fill="#51ACEA" transform="translate(159,140)"/>
<path d="M0 0 C-0.66 1.65 -1.32 3.3 -2 5 C-3.32 4.67 -4.64 4.34 -6 4 C-6.33 4.66 -6.66 5.32 -7 6 C-8.98 6 -10.96 6 -13 6 C-13.33 6.99 -13.66 7.98 -14 9 C-15.32 9 -16.64 9 -18 9 C-21.07905588 11.12601478 -22.91455762 12.87183643 -25 16 C-27.09375 17.203125 -27.09375 17.203125 -29.5 18.25 C-30.69109375 18.78367188 -30.69109375 18.78367188 -31.90625 19.328125 C-34 20 -34 20 -36 19 C-26.6726401 9.98261278 -13.50752882 0 0 0 Z " fill="#4AA5E6" transform="translate(123,167)"/>
<path d="M0 0 C1.32 0.66 2.64 1.32 4 2 C3.175 2.598125 2.35 3.19625 1.5 3.8125 C0.675 4.534375 -0.15 5.25625 -1 6 C-1 6.99 -1 7.98 -1 9 C-2.5817307 12.1634614 -5.24242745 13.86147435 -8 16 C-8.66 16 -9.32 16 -10 16 C-10.99 18.475 -10.99 18.475 -12 21 C-12.33 20.34 -12.66 19.68 -13 19 C-9.95515135 11.70709637 -5.46388249 5.64170115 0 0 Z " fill="#43A1E4" transform="translate(86,187)"/>
<path d="M0 0 C4.88305494 3.94400592 9.07100306 8.10661291 13 13 C13.61875 13.763125 14.2375 14.52625 14.875 15.3125 C16 17 16 17 16 19 C14.35 19.66 12.7 20.32 11 21 C11.268125 20.29875 11.53625 19.5975 11.8125 18.875 C12.32165355 15.72786702 12.32165355 15.72786702 9.6875 12.75 C7.31272376 10.02006581 7.31272376 10.02006581 5 9 C4.67 8.01 4.34 7.02 4 6 C3.319375 5.319375 2.63875 4.63875 1.9375 3.9375 C1.298125 3.298125 0.65875 2.65875 0 2 C0 1.34 0 0.68 0 0 Z " fill="#52AAE7" transform="translate(303,117)"/>
<path d="M0 0 C4.37444648 0 6.18618782 1.05252144 10 3 C10.99 3 11.98 3 13 3 C14.66666667 3 16.33333333 3 18 3 C17.67 3.99 17.34 4.98 17 6 C10.83381819 6.40214229 5.82254243 4.96818336 0 3 C0 2.01 0 1.02 0 0 Z " fill="#2181D5" transform="translate(110,296)"/>
<path d="M0 0 C1.30324219 -0.01417969 2.60648438 -0.02835938 3.94921875 -0.04296875 C7.3125 0.1875 7.3125 0.1875 10.3125 2.1875 C8.65635343 2.56968767 6.98792976 2.90145102 5.3125 3.1875 C4.9825 2.8575 4.6525 2.5275 4.3125 2.1875 C2.68997508 2.08863647 1.06302727 2.05778833 -0.5625 2.0625 C-1.44679687 2.05992187 -2.33109375 2.05734375 -3.2421875 2.0546875 C-5.82656291 2.08701415 -5.82656291 2.08701415 -8.6875 3.1875 C-11.375 2.75 -11.375 2.75 -13.6875 2.1875 C-13.6875 1.8575 -13.6875 1.5275 -13.6875 1.1875 C-9.08490305 0.29552385 -4.68601145 0.02331349 0 0 Z " fill="#4AA3E4" transform="translate(136.6875,164.8125)"/>
<path d="M0 0 C1.65 0.33 3.3 0.66 5 1 C4.67 2.65 4.34 4.3 4 6 C2.35 5.67 0.7 5.34 -1 5 C-0.67 3.35 -0.34 1.7 0 0 Z " fill="#E51A1A" transform="translate(128,1)"/>
<path d="M0 0 C2.475 0.495 2.475 0.495 5 1 C5.12375 2.03125 5.2475 3.0625 5.375 4.125 C5.93889814 7.62116846 6.78682059 10.68397627 8 14 C5.50447597 11.72402354 3.93377014 9.39278822 2.3125 6.4375 C1.87550781 5.65246094 1.43851562 4.86742187 0.98828125 4.05859375 C0 2 0 2 0 0 Z " fill="#358CD4" transform="translate(73,261)"/>
<path d="M0 0 C2.97 0.33 5.94 0.66 9 1 C8.34 2.32 7.68 3.64 7 5 C6.34 4.67 5.68 4.34 5 4 C3.32345271 4.27942455 1.65391846 4.60828247 0 5 C0 3.35 0 1.7 0 0 Z " fill="#41A1E7" transform="translate(349,165)"/>
<path d="M0 0 C-0.33 1.65 -0.66 3.3 -1 5 C-2.32 5 -3.64 5 -5 5 C-6.03125 5.515625 -7.0625 6.03125 -8.125 6.5625 C-9.07375 7.036875 -10.0225 7.51125 -11 8 C-11.66 7.67 -12.32 7.34 -13 7 C-11.21190303 5.82786955 -9.41940875 4.66244474 -7.625 3.5 C-6.62726563 2.8503125 -5.62953125 2.200625 -4.6015625 1.53125 C-2 0 -2 0 0 0 Z " fill="#57A8E2" transform="translate(110,171)"/>
<path d="M0 0 C0.99 0 1.98 0 3 0 C3 2.64 3 5.28 3 8 C2.01 8 1.02 8 0 8 C0 5.36 0 2.72 0 0 Z " fill="#1B81D6" transform="translate(406,243)"/>
<path d="M0 0 C-0.375 2.4375 -0.375 2.4375 -1 5 C-1.99 5.495 -1.99 5.495 -3 6 C-3.99 5.01 -4.98 4.02 -6 3 C-3.375 0 -3.375 0 0 0 Z " fill="#117CD6" transform="translate(396,275)"/>
<path d="M0 0 C0.33 0.66 0.66 1.32 1 2 C-0.65 3.98 -2.3 5.96 -4 8 C-4.99 7.67 -5.98 7.34 -7 7 C-4.69 4.69 -2.38 2.38 0 0 Z " fill="#D8EFF9" transform="translate(392,282)"/>
<path d="M0 0 C2.67927341 4.01891012 2.15601248 6.24161923 2 11 C0.4375 10 0.4375 10 -1 8 C-0.96726452 5.23385218 -0.49404328 2.73969453 0 0 Z " fill="#1D86D9" transform="translate(407,216)"/>
<path d="M0 0 C3.77545388 1.09068668 6.47043472 1.9083091 9 5 C7.35 5.33 5.7 5.66 4 6 C3.67 5.01 3.34 4.02 3 3 C2.01 2.67 1.02 2.34 0 2 C0 1.34 0 0.68 0 0 Z " fill="#469CDC" transform="translate(369,171)"/>
<path d="M0 0 C-3.28463659 2.18975773 -6.20696275 2.99806563 -10 4 C-10 3.01 -10 2.02 -10 1 C-6.59437148 0.22157062 -3.49234244 -0.09978121 0 0 Z " fill="#DEF5FC" transform="translate(119,167)"/>
<path d="M0 0 C-1.45255699 3.82946843 -3.42895561 5.12050295 -7 7 C-6.61402985 4.20171644 -6.19863427 3.1794116 -4.0625 1.25 C-2 0 -2 0 0 0 Z " fill="#277ACB" transform="translate(387,286)"/>
<path d="M0 0 C0.33 0.99 0.66 1.98 1 3 C1.66 3.33 2.32 3.66 3 4 C2.67 4.99 2.34 5.98 2 7 C1.34 7 0.68 7 0 7 C-1.125 2.25 -1.125 2.25 0 0 Z " fill="#1C8AE1" transform="translate(81,268)"/>
</svg>
